<svg width="19" height="19" viewBox="0 0 19 19" fill="none" xmlns="http://www.w3.org/2000/svg">
<path fill-rule="evenodd" clip-rule="evenodd" d="M9.16667 0C9.6269 0 10 0.373096 10 0.833333V8.33333H17.5C17.9602 8.33333 18.3333 8.70643 18.3333 9.16667C18.3333 9.6269 17.9602 10 17.5 10H10V17.5C10 17.9602 9.6269 18.3333 9.16667 18.3333C8.70643 18.3333 8.33333 17.9602 8.33333 17.5V10H0.833333C0.373096 10 0 9.6269 0 9.16667C0 8.70643 0.373096 8.33333 0.833333 8.33333H8.33333V0.833333C8.33333 0.373096 8.70643 0 9.16667 0Z" fill="#FF3F3A"/>
</svg>
