<svg width="1916" height="1074" viewBox="0 0 1916 1074" fill="none" xmlns="http://www.w3.org/2000/svg">
<g clip-path="url(#clip0_2529_327)">
<g opacity="0.2" clip-path="url(#clip1_2529_327)">
<path d="M30.0975 890C-48.4557 890 -112 953.544 -112 1032.1C-112 1110.46 -48.4557 1174.19 30.0975 1174.19C108.456 1174.19 172.195 1110.65 172.195 1032.1C172 953.544 108.456 890 30.0975 890ZM30.0975 1165.03C-43.3878 1165.03 -102.839 1105.58 -102.839 1032.1C-102.839 958.612 -43.3878 899.161 30.0975 899.161C103.583 899.161 163.034 958.612 163.034 1032.1C163.034 1105.39 103.388 1165.03 30.0975 1165.03Z" fill="white"/>
<path d="M30.0988 920.603C-31.3014 920.603 -81.2012 970.502 -81.2012 1031.9C-81.2012 1093.3 -31.3014 1143.2 30.0988 1143.2C91.4989 1143.2 141.399 1093.5 141.399 1032.1C141.399 970.502 91.4989 920.603 30.0988 920.603ZM30.0988 1126.24C-21.9452 1126.24 -64.243 1083.95 -64.243 1031.9C-64.243 979.859 -21.9452 937.561 30.0988 937.561C82.1427 937.561 124.441 979.859 124.441 1031.9C124.441 1083.95 82.1427 1126.24 30.0988 1126.24Z" fill="white"/>
<path d="M30.098 969.527C-4.40304 969.527 -32.4717 997.596 -32.4717 1032.1C-32.4717 1066.6 -4.59796 1094.67 30.098 1094.67C64.599 1094.67 92.6677 1066.6 92.6677 1032.1C92.4727 997.596 64.599 969.527 30.098 969.527ZM30.098 1065.62C11.5805 1065.62 -3.42843 1050.61 -3.42843 1032.1C-3.42843 1013.58 11.5805 998.571 30.098 998.571C48.6155 998.571 63.6244 1013.58 63.6244 1032.1C63.6244 1050.61 48.6155 1065.62 30.098 1065.62Z" fill="white"/>
</g>
<g opacity="0.8" clip-path="url(#clip2_2529_327)">
<path d="M1768.34 783.264C1768.34 784.784 1767.19 785.923 1765.67 785.923C1764.14 785.923 1763 784.784 1763 783.264C1763 781.745 1764.14 780.605 1765.67 780.605C1767.19 780.605 1768.34 781.872 1768.34 783.264Z" fill="white"/>
<path d="M1791.08 783.264C1791.08 784.784 1789.93 785.923 1788.41 785.923C1786.88 785.923 1785.74 784.784 1785.74 783.264C1785.74 781.745 1786.88 780.605 1788.41 780.605C1789.8 780.605 1791.08 781.872 1791.08 783.264Z" fill="white"/>
<path d="M1813.69 783.264C1813.69 784.784 1812.54 785.923 1811.02 785.923C1809.5 785.923 1808.35 784.784 1808.35 783.264C1808.35 781.745 1809.5 780.605 1811.02 780.605C1812.54 780.605 1813.69 781.872 1813.69 783.264Z" fill="white"/>
<path d="M1836.43 783.264C1836.43 784.784 1835.28 785.923 1833.76 785.923C1832.24 785.923 1831.09 784.784 1831.09 783.264C1831.09 781.745 1832.24 780.605 1833.76 780.605C1835.28 780.605 1836.43 781.872 1836.43 783.264Z" fill="white"/>
<path d="M1859.17 783.264C1859.17 784.784 1858.02 785.923 1856.5 785.923C1854.98 785.923 1853.83 784.784 1853.83 783.264C1853.83 781.745 1854.98 780.605 1856.5 780.605C1857.9 780.605 1859.17 781.872 1859.17 783.264Z" fill="white"/>
<path d="M1881.91 783.264C1881.91 784.784 1880.76 785.923 1879.24 785.923C1877.72 785.923 1876.57 784.784 1876.57 783.264C1876.57 781.745 1877.72 780.605 1879.24 780.605C1880.76 780.605 1881.91 781.872 1881.91 783.264Z" fill="white"/>
<path d="M1904.52 783.264C1904.52 784.784 1903.38 785.923 1901.85 785.923C1900.33 785.923 1899.18 784.784 1899.18 783.264C1899.18 781.745 1900.33 780.605 1901.85 780.605C1903.38 780.605 1904.52 781.872 1904.52 783.264Z" fill="white"/>
<path d="M1768.34 802.131C1768.34 803.65 1767.19 804.79 1765.67 804.79C1764.14 804.79 1763 803.65 1763 802.131C1763 800.611 1764.14 799.472 1765.67 799.472C1767.19 799.472 1768.34 800.611 1768.34 802.131Z" fill="white"/>
<path d="M1791.08 802.131C1791.08 803.65 1789.93 804.79 1788.41 804.79C1786.88 804.79 1785.74 803.65 1785.74 802.131C1785.74 800.611 1786.88 799.472 1788.41 799.472C1789.8 799.472 1791.08 800.611 1791.08 802.131Z" fill="white"/>
<path d="M1813.69 802.131C1813.69 803.65 1812.54 804.79 1811.02 804.79C1809.5 804.79 1808.35 803.65 1808.35 802.131C1808.35 800.611 1809.5 799.472 1811.02 799.472C1812.54 799.472 1813.69 800.611 1813.69 802.131Z" fill="white"/>
<path d="M1836.43 802.131C1836.43 803.65 1835.28 804.79 1833.76 804.79C1832.24 804.79 1831.09 803.65 1831.09 802.131C1831.09 800.611 1832.24 799.472 1833.76 799.472C1835.28 799.472 1836.43 800.611 1836.43 802.131Z" fill="white"/>
<path d="M1859.17 802.131C1859.17 803.65 1858.02 804.79 1856.5 804.79C1854.98 804.79 1853.83 803.65 1853.83 802.131C1853.83 800.611 1854.98 799.472 1856.5 799.472C1857.9 799.472 1859.17 800.611 1859.17 802.131Z" fill="white"/>
<path d="M1881.91 802.131C1881.91 803.65 1880.76 804.79 1879.24 804.79C1877.72 804.79 1876.57 803.65 1876.57 802.131C1876.57 800.611 1877.72 799.472 1879.24 799.472C1880.76 799.472 1881.91 800.611 1881.91 802.131Z" fill="white"/>
<path d="M1904.52 802.131C1904.52 803.65 1903.38 804.79 1901.85 804.79C1900.33 804.79 1899.18 803.65 1899.18 802.131C1899.18 800.611 1900.33 799.472 1901.85 799.472C1903.38 799.472 1904.52 800.611 1904.52 802.131Z" fill="white"/>
<path d="M1768.34 745.659C1768.34 747.178 1767.19 748.318 1765.67 748.318C1764.14 748.318 1763 747.178 1763 745.659C1763 744.14 1764.14 743 1765.67 743C1767.19 743 1768.34 744.14 1768.34 745.659Z" fill="white"/>
<path d="M1791.08 745.659C1791.08 747.178 1789.93 748.318 1788.41 748.318C1786.88 748.318 1785.74 747.178 1785.74 745.659C1785.74 744.14 1786.88 743 1788.41 743C1789.8 743 1791.08 744.14 1791.08 745.659Z" fill="white"/>
<path d="M1813.69 745.659C1813.69 747.178 1812.54 748.318 1811.02 748.318C1809.5 748.318 1808.35 747.178 1808.35 745.659C1808.35 744.14 1809.62 743 1811.02 743C1812.54 743 1813.69 744.14 1813.69 745.659Z" fill="white"/>
<path d="M1836.43 745.659C1836.43 747.178 1835.28 748.318 1833.76 748.318C1832.24 748.318 1831.09 747.178 1831.09 745.659C1831.09 744.14 1832.36 743 1833.76 743C1835.16 743 1836.43 744.14 1836.43 745.659Z" fill="white"/>
<path d="M1859.17 745.659C1859.17 747.178 1858.02 748.318 1856.5 748.318C1854.98 748.318 1853.83 747.178 1853.83 745.659C1853.83 744.14 1854.98 743 1856.5 743C1857.9 743 1859.17 744.14 1859.17 745.659Z" fill="white"/>
<path d="M1881.91 745.659C1881.91 747.178 1880.76 748.318 1879.24 748.318C1877.72 748.318 1876.57 747.178 1876.57 745.659C1876.57 744.14 1877.72 743 1879.24 743C1880.76 743 1881.91 744.14 1881.91 745.659Z" fill="white"/>
<path d="M1904.52 745.659C1904.52 747.178 1903.38 748.318 1901.85 748.318C1900.33 748.318 1899.18 747.178 1899.18 745.659C1899.18 744.14 1900.33 743 1901.85 743C1903.38 743 1904.52 744.14 1904.52 745.659Z" fill="white"/>
<path d="M1768.34 764.525C1768.34 766.045 1767.19 767.184 1765.67 767.184C1764.14 767.184 1763 765.918 1763 764.525C1763 763.006 1764.14 761.866 1765.67 761.866C1767.19 761.866 1768.34 763.006 1768.34 764.525Z" fill="white"/>
<path d="M1791.08 764.525C1791.08 766.045 1789.93 767.184 1788.41 767.184C1786.88 767.184 1785.74 766.045 1785.74 764.525C1785.74 763.006 1786.88 761.866 1788.41 761.866C1789.8 761.866 1791.08 763.006 1791.08 764.525Z" fill="white"/>
<path d="M1813.69 764.525C1813.69 766.045 1812.54 767.184 1811.02 767.184C1809.5 767.184 1808.35 766.045 1808.35 764.525C1808.35 763.006 1809.5 761.866 1811.02 761.866C1812.54 761.866 1813.69 763.006 1813.69 764.525Z" fill="white"/>
<path d="M1836.43 764.525C1836.43 766.045 1835.28 767.184 1833.76 767.184C1832.24 767.184 1831.09 766.045 1831.09 764.525C1831.09 763.006 1832.24 761.866 1833.76 761.866C1835.28 761.866 1836.43 763.006 1836.43 764.525Z" fill="white"/>
<path d="M1859.17 764.525C1859.17 766.045 1858.02 767.184 1856.5 767.184C1854.98 767.184 1853.83 766.045 1853.83 764.525C1853.83 763.006 1854.98 761.866 1856.5 761.866C1857.9 761.866 1859.17 763.006 1859.17 764.525Z" fill="white"/>
<path d="M1881.91 764.525C1881.91 766.045 1880.76 767.184 1879.24 767.184C1877.72 767.184 1876.57 766.045 1876.57 764.525C1876.57 763.006 1877.72 761.866 1879.24 761.866C1880.76 761.866 1881.91 763.006 1881.91 764.525Z" fill="white"/>
<path d="M1904.52 764.525C1904.52 766.045 1903.38 767.184 1901.85 767.184C1900.33 767.184 1899.18 766.045 1899.18 764.525C1899.18 763.006 1900.33 761.866 1901.85 761.866C1903.38 761.866 1904.52 763.006 1904.52 764.525Z" fill="white"/>
<path d="M1768.34 820.87C1768.34 822.389 1767.19 823.529 1765.67 823.529C1764.14 823.529 1763 822.389 1763 820.87C1763 819.35 1764.14 818.211 1765.67 818.211C1767.19 818.211 1768.34 819.477 1768.34 820.87Z" fill="white"/>
<path d="M1791.08 820.87C1791.08 822.389 1789.93 823.529 1788.41 823.529C1786.88 823.529 1785.74 822.389 1785.74 820.87C1785.74 819.35 1786.88 818.211 1788.41 818.211C1789.8 818.211 1791.08 819.477 1791.08 820.87Z" fill="white"/>
<path d="M1813.69 820.87C1813.69 822.389 1812.54 823.529 1811.02 823.529C1809.5 823.529 1808.35 822.389 1808.35 820.87C1808.35 819.35 1809.5 818.211 1811.02 818.211C1812.54 818.211 1813.69 819.477 1813.69 820.87Z" fill="white"/>
<path d="M1836.43 820.87C1836.43 822.389 1835.28 823.529 1833.76 823.529C1832.24 823.529 1831.09 822.389 1831.09 820.87C1831.09 819.35 1832.24 818.211 1833.76 818.211C1835.28 818.211 1836.43 819.477 1836.43 820.87Z" fill="white"/>
<path d="M1859.17 820.87C1859.17 822.389 1858.02 823.529 1856.5 823.529C1854.98 823.529 1853.83 822.389 1853.83 820.87C1853.83 819.35 1854.98 818.211 1856.5 818.211C1857.9 818.211 1859.17 819.477 1859.17 820.87Z" fill="white"/>
<path d="M1881.91 820.87C1881.91 822.389 1880.76 823.529 1879.24 823.529C1877.72 823.529 1876.57 822.389 1876.57 820.87C1876.57 819.35 1877.72 818.211 1879.24 818.211C1880.76 818.211 1881.91 819.477 1881.91 820.87Z" fill="white"/>
<path d="M1904.52 820.87C1904.52 822.389 1903.38 823.529 1901.85 823.529C1900.33 823.529 1899.18 822.389 1899.18 820.87C1899.18 819.35 1900.33 818.211 1901.85 818.211C1903.38 818.211 1904.52 819.477 1904.52 820.87Z" fill="white"/>
<path d="M1768.34 839.736C1768.34 841.256 1767.19 842.395 1765.67 842.395C1764.14 842.395 1763 841.256 1763 839.736C1763 838.217 1764.14 837.077 1765.67 837.077C1767.19 837.077 1768.34 838.217 1768.34 839.736Z" fill="white"/>
<path d="M1791.08 839.736C1791.08 841.256 1789.93 842.395 1788.41 842.395C1786.88 842.395 1785.74 841.256 1785.74 839.736C1785.74 838.217 1786.88 837.077 1788.41 837.077C1789.8 837.077 1791.08 838.217 1791.08 839.736Z" fill="white"/>
<path d="M1813.69 839.736C1813.69 841.256 1812.54 842.395 1811.02 842.395C1809.5 842.395 1808.35 841.256 1808.35 839.736C1808.35 838.217 1809.5 837.077 1811.02 837.077C1812.54 837.077 1813.69 838.217 1813.69 839.736Z" fill="white"/>
<path d="M1833.76 842.395C1835.23 842.395 1836.43 841.205 1836.43 839.736C1836.43 838.268 1835.23 837.077 1833.76 837.077C1832.29 837.077 1831.09 838.268 1831.09 839.736C1831.09 841.205 1832.29 842.395 1833.76 842.395Z" fill="white"/>
<path d="M1859.17 839.736C1859.17 841.256 1858.02 842.395 1856.5 842.395C1854.98 842.395 1853.83 841.256 1853.83 839.736C1853.83 838.217 1854.98 837.077 1856.5 837.077C1857.9 837.077 1859.17 838.217 1859.17 839.736Z" fill="white"/>
<path d="M1881.91 839.736C1881.91 841.256 1880.76 842.395 1879.24 842.395C1877.72 842.395 1876.57 841.256 1876.57 839.736C1876.57 838.217 1877.72 837.077 1879.24 837.077C1880.76 837.077 1881.91 838.217 1881.91 839.736Z" fill="white"/>
<path d="M1904.52 839.736C1904.52 841.256 1903.38 842.395 1901.85 842.395C1900.33 842.395 1899.18 841.256 1899.18 839.736C1899.18 838.217 1900.33 837.077 1901.85 837.077C1903.38 837.077 1904.52 838.217 1904.52 839.736Z" fill="white"/>
<path d="M1768.34 858.601C1768.34 860.121 1767.19 861.26 1765.67 861.26C1764.14 861.26 1763 860.121 1763 858.601C1763 857.082 1764.14 855.942 1765.67 855.942C1767.19 855.942 1768.34 857.082 1768.34 858.601Z" fill="white"/>
<path d="M1791.08 858.601C1791.08 860.121 1789.93 861.26 1788.41 861.26C1786.88 861.26 1785.74 860.121 1785.74 858.601C1785.74 857.082 1786.88 855.942 1788.41 855.942C1789.8 855.942 1791.08 857.082 1791.08 858.601Z" fill="white"/>
<path d="M1813.69 858.601C1813.69 860.121 1812.54 861.26 1811.02 861.26C1809.5 861.26 1808.35 860.121 1808.35 858.601C1808.35 857.082 1809.5 855.942 1811.02 855.942C1812.54 855.942 1813.69 857.082 1813.69 858.601Z" fill="white"/>
<path d="M1836.43 858.601C1836.43 860.121 1835.28 861.26 1833.76 861.26C1832.24 861.26 1831.09 860.121 1831.09 858.601C1831.09 857.082 1832.24 855.942 1833.76 855.942C1835.28 855.942 1836.43 857.082 1836.43 858.601Z" fill="white"/>
<path d="M1859.17 858.601C1859.17 860.121 1858.02 861.26 1856.5 861.26C1854.98 861.26 1853.83 860.121 1853.83 858.601C1853.83 857.082 1854.98 855.942 1856.5 855.942C1857.9 855.942 1859.17 857.082 1859.17 858.601Z" fill="white"/>
<path d="M1881.91 858.601C1881.91 860.121 1880.76 861.26 1879.24 861.26C1877.72 861.26 1876.57 860.121 1876.57 858.601C1876.57 857.082 1877.72 855.942 1879.24 855.942C1880.76 855.942 1881.91 857.082 1881.91 858.601Z" fill="white"/>
<path d="M1904.52 858.601C1904.52 860.121 1903.38 861.26 1901.85 861.26C1900.33 861.26 1899.18 860.121 1899.18 858.601C1899.18 857.082 1900.33 855.942 1901.85 855.942C1903.38 855.942 1904.52 857.082 1904.52 858.601Z" fill="white"/>
<path d="M1768.34 877.341C1768.34 878.86 1767.19 880 1765.67 880C1764.14 880 1763 878.86 1763 877.341C1763 875.821 1764.14 874.682 1765.67 874.682C1767.19 874.682 1768.34 875.948 1768.34 877.341Z" fill="white"/>
<path d="M1791.08 877.341C1791.08 878.86 1789.93 880 1788.41 880C1786.88 880 1785.74 878.86 1785.74 877.341C1785.74 875.821 1786.88 874.682 1788.41 874.682C1789.8 874.682 1791.08 875.948 1791.08 877.341Z" fill="white"/>
<path d="M1813.69 877.341C1813.69 878.86 1812.54 880 1811.02 880C1809.5 880 1808.35 878.86 1808.35 877.341C1808.35 875.821 1809.5 874.682 1811.02 874.682C1812.54 874.682 1813.69 875.948 1813.69 877.341Z" fill="white"/>
<path d="M1836.43 877.341C1836.43 878.86 1835.28 880 1833.76 880C1832.24 880 1831.09 878.86 1831.09 877.341C1831.09 875.821 1832.24 874.682 1833.76 874.682C1835.28 874.682 1836.43 875.948 1836.43 877.341Z" fill="white"/>
<path d="M1859.17 877.341C1859.17 878.86 1858.02 880 1856.5 880C1854.98 880 1853.83 878.86 1853.83 877.341C1853.83 875.821 1854.98 874.682 1856.5 874.682C1857.9 874.682 1859.17 875.948 1859.17 877.341Z" fill="white"/>
<path d="M1881.91 877.341C1881.91 878.86 1880.76 880 1879.24 880C1877.72 880 1876.57 878.86 1876.57 877.341C1876.57 875.821 1877.72 874.682 1879.24 874.682C1880.76 874.682 1881.91 875.948 1881.91 877.341Z" fill="white"/>
<path d="M1904.52 877.341C1904.52 878.86 1903.38 880 1901.85 880C1900.33 880 1899.18 878.86 1899.18 877.341C1899.18 875.821 1900.33 874.682 1901.85 874.682C1903.38 874.682 1904.52 875.948 1904.52 877.341Z" fill="white"/>
</g>
<g opacity="0.3">
<path d="M1761.81 69.2212L1771.47 78.8799L1745.78 104.563L1720.1 78.8799L1729.68 69.2943L1745.71 85.319L1761.81 69.2212Z" fill="white"/>
<path d="M1761.81 34.5386L1771.39 44.1241L1745.71 69.8075L1720.1 44.1973L1729.76 34.5386L1745.78 50.5632L1761.81 34.5386Z" fill="white"/>
<path d="M1761.73 -0.218352L1771.39 9.44036L1745.78 35.0506L1720.1 9.36719L1729.68 -0.218352L1745.71 15.8063L1761.73 -0.218352Z" fill="white"/>
<path d="M1761.81 -34.9751L1771.47 -25.3164L1745.78 0.36699L1720.1 -25.3164L1729.76 -34.9751L1745.78 -18.9504L1761.81 -34.9751Z" fill="white"/>
</g>
<path opacity="0.3" d="M794 802.553C780.071 816.482 757.377 816.482 743.447 802.553C729.518 788.623 729.518 765.929 743.447 752L794 802.553Z" fill="white"/>
<g opacity="0.3">
<path d="M848.486 523.89C859.205 523.89 867.937 515.165 867.937 504.453C867.937 493.742 859.205 485.017 848.486 485.017L848.486 523.89Z" fill="white"/>
<path d="M818.141 523.89C828.861 523.89 837.592 515.165 837.592 504.453C837.592 493.742 828.861 485.017 818.141 485.017L818.141 523.89Z" fill="white"/>
<path d="M787.796 523.89C798.515 523.89 807.247 515.165 807.247 504.453C807.247 493.742 798.515 485.017 787.796 485.017V523.89Z" fill="white"/>
</g>
<g opacity="0.3">
<path d="M146.301 138.921L146.301 127L178 127L178 158.699L166.169 158.699L166.169 138.921L146.301 138.921Z" fill="white"/>
<path d="M124.898 160.325L124.898 148.494L156.597 148.494L156.597 180.103L144.676 180.103L144.676 160.325L124.898 160.325Z" fill="white"/>
<path d="M103.495 181.819L103.495 169.898L135.103 169.898L135.103 201.597L123.272 201.597L123.272 181.819L103.495 181.819Z" fill="white"/>
<path d="M82.0005 203.222L82.0004 191.301L113.699 191.301L113.699 223L101.778 223L101.778 203.222L82.0005 203.222Z" fill="white"/>
</g>
</g>
<defs>
<clipPath id="clip0_2529_327">
<rect width="1920" height="1080" fill="white" transform="translate(0 -6)"/>
</clipPath>
<clipPath id="clip1_2529_327">
<rect width="284" height="284" fill="white" transform="translate(-112 890)"/>
</clipPath>
<clipPath id="clip2_2529_327">
<rect width="187" height="137" fill="white" transform="translate(1763 743)"/>
</clipPath>
</defs>
</svg>
